<svg id="Layer_1" data-name="Layer 1" xmlns="http://www.w3.org/2000/svg" viewBox="0 0 372.1 144"><path d="M141.61,104.77a8.09,8.09,0,0,0,3.63-.72,6.56,6.56,0,0,0,2.3-1.86,7.17,7.17,0,0,0,1.22-2.55,11.86,11.86,0,0,0,.35-2.8V63.54h6.5V96.38a23.05,23.05,0,0,1-.27,3.54,15.76,15.76,0,0,1-.89,3.32,11.74,11.74,0,0,1-1.66,2.9,9.93,9.93,0,0,1-2.58,2.31,13.29,13.29,0,0,1-3.66,1.51,19.92,19.92,0,0,1-4.9.55,19.67,19.67,0,0,1-4.93-.56,13.16,13.16,0,0,1-3.7-1.54,10,10,0,0,1-2.58-2.34,11.9,11.9,0,0,1-1.66-2.95,15.29,15.29,0,0,1-.89-3.35,23.64,23.64,0,0,1-.27-3.57l.06-18.59h6.44V96.84a11.86,11.86,0,0,0,.35,2.8,7.17,7.17,0,0,0,1.22,2.55,6.47,6.47,0,0,0,2.3,1.86,8.08,8.08,0,0,0,3.62.72" style="fill:#00aeef"/><path d="M167.14,101.53a5.72,5.72,0,0,0,1.38,2,5.56,5.56,0,0,0,1.92,1.15,6.37,6.37,0,0,0,2.13.37,14,14,0,0,0,2.17-.17,5.58,5.58,0,0,0,1.88-.65,3.63,3.63,0,0,0,1.32-1.32,4.33,4.33,0,0,0,.5-2.19,3.12,3.12,0,0,0-.55-1.63,5.36,5.36,0,0,0-1.34-1.35,9.13,9.13,0,0,0-1.94-1.06,20.68,20.68,0,0,0-2.34-.77c-.83-.19-1.68-.41-2.55-.63a20.68,20.68,0,0,1-2.52-.84,14.52,14.52,0,0,1-2.3-1.15A7.54,7.54,0,0,1,163,91.65a7.24,7.24,0,0,1-1.27-2.2,8.71,8.71,0,0,1-.46-2.93,10.14,10.14,0,0,1,.49-3.23,8.43,8.43,0,0,1,1.34-2.5,8.19,8.19,0,0,1,2-1.81,11.85,11.85,0,0,1,2.45-1.2,13.73,13.73,0,0,1,2.71-.65A16.19,16.19,0,0,1,173,77a15.5,15.5,0,0,1,4.52.73,10.18,10.18,0,0,1,3.58,2,8.88,8.88,0,0,1,2.36,3.21,10.84,10.84,0,0,1,.85,4.45h-6.51a10,10,0,0,0-.25-1.78,5.1,5.1,0,0,0-.7-1.62,3.84,3.84,0,0,0-1.33-1.19,4.38,4.38,0,0,0-2.11-.51,8.43,8.43,0,0,0-2.67.25,4.18,4.18,0,0,0-1.67.86,2.92,2.92,0,0,0-.84,1.29,5.33,5.33,0,0,0-.23,1.55,2.13,2.13,0,0,0,.49,1.39,4.55,4.55,0,0,0,1.34,1.09,10.71,10.71,0,0,0,2,.87c.74.26,1.53.5,2.36.73a38.1,38.1,0,0,1,4.78,1.6,14.29,14.29,0,0,1,3.47,2,7.36,7.36,0,0,1,2.83,6.08,12.57,12.57,0,0,1-.5,3.6,8.85,8.85,0,0,1-1.33,2.74,8.22,8.22,0,0,1-2,1.94,10.64,10.64,0,0,1-2.52,1.27,14.75,14.75,0,0,1-2.86.69,21.54,21.54,0,0,1-3,.21,19.07,19.07,0,0,1-3.29-.29,14.3,14.3,0,0,1-3.07-.9,12.56,12.56,0,0,1-2.69-1.55,9.58,9.58,0,0,1-2.1-2.25,10.17,10.17,0,0,1-1.36-3,12.55,12.55,0,0,1-.41-3.74h6.5a6.82,6.82,0,0,0,.51,2.83" style="fill:#00aeef"/><path d="M190.63,88.82V81.44h6l0,2.36h7.67v5Zm0,16v-7.3h5.93v2.36h7.74v4.94Z" style="fill:#00aeef"/><path d="M224.84,82.38a11.75,11.75,0,0,0-3.48.43A9.13,9.13,0,0,0,218.85,84a6.71,6.71,0,0,0-1.62,1.48,3.91,3.91,0,0,0-.73,1.44,6.71,6.71,0,0,1,.91,1,9,9,0,0,1,.75,1.33,8.29,8.29,0,0,1,.49,1.53,7.15,7.15,0,0,1,.17,1.68v17.34h-6.46V92.37a10,10,0,0,0-.14-1.32,5.31,5.31,0,0,0-.41-1.32,4.88,4.88,0,0,0-.82-1.21,4.78,4.78,0,0,0-1.34-1,13.61,13.61,0,0,1,.87-2.59A12.65,12.65,0,0,1,212,82.45a13.64,13.64,0,0,1,2.11-2.2,13.28,13.28,0,0,1,2.81-1.76,16.25,16.25,0,0,1,3.57-1.17,21,21,0,0,1,4.37-.42,22,22,0,0,1,5,.52,14.77,14.77,0,0,1,3.88,1.44,11.2,11.2,0,0,1,2.81,2.2,11.08,11.08,0,0,1,1.85,2.77,13.2,13.2,0,0,1,1,3.17,18.28,18.28,0,0,1,.32,3.39v19.4h-6.52V89.86a8.77,8.77,0,0,0-.42-2.68,6,6,0,0,0-1.42-2.38,7.2,7.2,0,0,0-2.61-1.72,11,11,0,0,0-4-.7" style="fill:#00aeef"/><polygon points="221.2 71.86 221.2 64.15 227.16 64.15 227.12 66.91 242.5 66.91 242.54 71.86 221.2 71.86" style="fill:#00aeef"/><path d="M267.85,109.8l-.14-3.93a11.24,11.24,0,0,1-4.15,3.51,12.94,12.94,0,0,1-5.76,1.2,15,15,0,0,1-5.63-.91,8.8,8.8,0,0,1-3.59-2.56,9.83,9.83,0,0,1-1.9-4,21.56,21.56,0,0,1-.55-5.06V77.61h6.4V98.72a6.67,6.67,0,0,0,.46,2.41,5.34,5.34,0,0,0,3.15,3.07,7.09,7.09,0,0,0,2.5.42,10,10,0,0,0,3.95-.72,7.43,7.43,0,0,0,2.79-2,8.28,8.28,0,0,0,1.65-3,12.13,12.13,0,0,0,.53-3.78l0-17.5h6.56V109.8Z" style="fill:#00aeef"/><path d="M299.66,97a7.86,7.86,0,0,0-.42-2.85,3.41,3.41,0,0,0-1.18-1.59,4.16,4.16,0,0,0-1.86-.7,24.84,24.84,0,0,0-2.49-.19l0-4.72a7.54,7.54,0,0,0,3.15-.58,4.79,4.79,0,0,0,2.05-1.76A7.75,7.75,0,0,0,300,81.68a23,23,0,0,0,.36-4.07h6.52a29.62,29.62,0,0,1-.27,3.51,13.44,13.44,0,0,1-.89,3.28,10,10,0,0,1-1.7,2.78,8.07,8.07,0,0,1-2.71,2,7.25,7.25,0,0,1,2,.89,5.86,5.86,0,0,1,1.34,1.22,5.94,5.94,0,0,1,.85,1.42,9.24,9.24,0,0,1,.46,1.5,9.79,9.79,0,0,1,.18,1.48c0,.48,0,.92,0,1.33l0,2.61a12,12,0,0,1-.44,3.43,9.93,9.93,0,0,1-1.28,2.77,9.33,9.33,0,0,1-1.94,2.12,11.28,11.28,0,0,1-2.47,1.49,12.68,12.68,0,0,1-2.82.88,15.16,15.16,0,0,1-3,.29,14.81,14.81,0,0,1-4.55-.7,11.5,11.5,0,0,1-3.89-2.09,10.51,10.51,0,0,1-2.73-3.44,10.68,10.68,0,0,1-1.06-4.75l0-2.61c0-.82,0-1.53.08-2.15a16,16,0,0,1,.22-1.64,7.37,7.37,0,0,1,.39-1.3,7.84,7.84,0,0,1,.61-1.14,10.87,10.87,0,0,1,.83-1.14c.32-.39.69-.84,1.11-1.33L286,87.2a9.17,9.17,0,0,0,.64-.93,5.65,5.65,0,0,0,.44-.89,4.14,4.14,0,0,0,.25-.95,2.14,2.14,0,0,0,0-.88,1.73,1.73,0,0,0-.36-.7,1.84,1.84,0,0,0-.64-.46,2,2,0,0,0-.85-.16,6,6,0,0,0-1.05.08c-.35,0-.72.13-1.13.23s-.87.25-1.37.43l-1.74.6,0-5c.65-.23,1.29-.44,1.92-.62l1.74-.45a14.57,14.57,0,0,1,1.45-.26,7.82,7.82,0,0,1,1-.09,11.75,11.75,0,0,1,3.31.43,6.57,6.57,0,0,1,2.5,1.32,5.13,5.13,0,0,1,1.49,2.2,6.94,6.94,0,0,1,.26,3.12,7.47,7.47,0,0,1-.46,1.67,12.3,12.3,0,0,1-.85,1.64c-.34.57-.76,1.19-1.24,1.87s-1.05,1.46-1.67,2.36A8.3,8.3,0,0,0,288.9,93a5.11,5.11,0,0,0-.36,1.11,7,7,0,0,0-.15,1.12c0,.39-.05.82-.08,1.29l.05,2.11a7.25,7.25,0,0,0,.46,2.65,5.65,5.65,0,0,0,1.23,2,5.19,5.19,0,0,0,1.85,1.2,6.34,6.34,0,0,0,2.27.4,7.45,7.45,0,0,0,2.15-.3,4.31,4.31,0,0,0,1.73-1,4.61,4.61,0,0,0,1.17-1.77,7.53,7.53,0,0,0,.4-2.68Z" style="fill:#00aeef"/><polygon points="281.48 66.82 300.86 66.82 300.85 62.27 306.96 62.27 307 71.94 278.89 71.94 281.48 66.82" style="fill:#00aeef"/><path d="M331.4,93.69a23.89,23.89,0,0,0-.48-5.1A11.57,11.57,0,0,0,329.54,85a5.67,5.67,0,0,0-5-2.79,6.31,6.31,0,0,0-2.24.39,4.8,4.8,0,0,0-1.81,1.22A6.31,6.31,0,0,0,319.18,86a11.1,11.1,0,0,0-.62,3H312a14.27,14.27,0,0,1,1-5,11.66,11.66,0,0,1,2.55-3.85,11,11,0,0,1,3.88-2.49,13.67,13.67,0,0,1,5-.89,13.89,13.89,0,0,1,6,1.22,11.17,11.17,0,0,1,4.23,3.43,15.12,15.12,0,0,1,2.48,5.32,29.44,29.44,0,0,1,0,13.8,15,15,0,0,1-2.48,5.31,11.12,11.12,0,0,1-4.23,3.41,14.1,14.1,0,0,1-6,1.2,13.67,13.67,0,0,1-5-.89,11,11,0,0,1-3.88-2.49,11.49,11.49,0,0,1-2.54-3.85,14.55,14.55,0,0,1-1-5h6.52a11.08,11.08,0,0,0,.59,3,6.18,6.18,0,0,0,1.26,2.1,4.92,4.92,0,0,0,1.81,1.22,6.31,6.31,0,0,0,2.24.39,6.05,6.05,0,0,0,2.87-.68,5.86,5.86,0,0,0,2.18-2.09,11.35,11.35,0,0,0,1.39-3.56,23.37,23.37,0,0,0,.48-5.06" style="fill:#00aeef"/><polygon points="314.5 71.94 317.1 66.82 337.9 66.82 337.9 71.94 314.5 71.94" style="fill:#00aeef"/><path d="M349.4,109.8h-6.11V90.4a19.76,19.76,0,0,1,.44-4.43,11.19,11.19,0,0,1,1.64-4,10.1,10.1,0,0,1,3.2-3.06,13.59,13.59,0,0,1,5.12-1.74l4,4,3.68-4a13.74,13.74,0,0,1,5.29,1.66,10.14,10.14,0,0,1,3.3,3,11.23,11.23,0,0,1,1.68,4,20.86,20.86,0,0,1,.45,4.49v19.4h-6.44V89.86a8.5,8.5,0,0,0-.16-1.75,10.11,10.11,0,0,0-.55-1.83,7.56,7.56,0,0,0-.9-1.63,4,4,0,0,0-1.25-1.16l-4,3.93a2.92,2.92,0,0,1-.44.32,1.21,1.21,0,0,1-.62.14,1.75,1.75,0,0,1-.74-.14,1.48,1.48,0,0,1-.47-.32l-4.13-4a3.38,3.38,0,0,0-1.33,1.1,6.1,6.1,0,0,0-.82,1.61,8.78,8.78,0,0,0-.43,1.87,15.5,15.5,0,0,0-.15,1.86l0,11.46,5.44-6h-2.51l0-4.87h9.82l0,4.48Z" style="fill:#00aeef"/><rect x="127.53" y="117.27" width="244.43" height="1.59" style="fill:#0058a7"/><path d="M210.2,139.36l-6.94-11.22,0,0h-3.29v15.62h3V132.54l6.93,11.17h3.34V128.09h-3Zm-18.27-11.27h-3.17l-6,15.49-.05.13h3.12l1.57-4.33h5.87l1.58,4.27,0,.06h3.34L192,128.15Zm-3.53,8.73,1.9-5.29,1.93,5.29Zm-7.64,0a3.92,3.92,0,0,0-.95-.87,3.55,3.55,0,0,0-1-.46,3.22,3.22,0,0,0,.73-.52,4,4,0,0,0,.67-.82,4,4,0,0,0,.39-.9,3.52,3.52,0,0,0,.12-.89,4.72,4.72,0,0,0-.21-1.48,3.62,3.62,0,0,0-.59-1.12,3.41,3.41,0,0,0-.9-.79,6.15,6.15,0,0,0-1.13-.51,7.68,7.68,0,0,0-1.3-.27,12.77,12.77,0,0,0-1.38-.08h-6.72v15.62h7.59a7.2,7.2,0,0,0,2.47-.38,4.92,4.92,0,0,0,1.71-1,3.83,3.83,0,0,0,1-1.44,4.49,4.49,0,0,0,.31-1.66,4,4,0,0,0-.21-1.29A3.91,3.91,0,0,0,180.76,136.8Zm-9.26-6.18h3.75a5,5,0,0,1,1.07.11,2.6,2.6,0,0,1,.81.34,1.6,1.6,0,0,1,.51.56,1.55,1.55,0,0,1,.17.8,2,2,0,0,1-.14.77,1.6,1.6,0,0,1-.44.66,2.43,2.43,0,0,1-.83.46,4.43,4.43,0,0,1-1.31.17H171.5Zm7,9.34a1.86,1.86,0,0,1-.49.63,2.41,2.41,0,0,1-.79.45,3.08,3.08,0,0,1-1.09.18h-4.6V137h4.19a6.07,6.07,0,0,1,1.18.11,2.59,2.59,0,0,1,.93.37,1.79,1.79,0,0,1,.61.67,2.21,2.21,0,0,1,.22,1A1.72,1.72,0,0,1,178.47,140Zm44.45-2.36h4.7a4.59,4.59,0,0,1-.32,1.41,4,4,0,0,1-2.16,2.18,4.17,4.17,0,0,1-1.73.34,5.26,5.26,0,0,1-1.56-.21,4.11,4.11,0,0,1-1.21-.58,3.58,3.58,0,0,1-.89-.89,5.34,5.34,0,0,1-.61-1.16,7.42,7.42,0,0,1-.34-1.37,12.47,12.47,0,0,1-.12-1.52,8,8,0,0,1,.13-1.41,6.21,6.21,0,0,1,.39-1.31,5.3,5.3,0,0,1,.64-1.14,4.62,4.62,0,0,1,.92-.9,4.7,4.7,0,0,1,1.21-.59,5.1,5.1,0,0,1,1.51-.21,5.51,5.51,0,0,1,1.39.17,3.39,3.39,0,0,1,1.12.52,3,3,0,0,1,.81.91,4.18,4.18,0,0,1,.49,1.33l0,.08h3l0-.11a6.94,6.94,0,0,0-.83-2.36,5.63,5.63,0,0,0-1.48-1.69,6.6,6.6,0,0,0-2-1,8.76,8.76,0,0,0-2.46-.33,9.1,9.1,0,0,0-2.34.28,6.87,6.87,0,0,0-1.93.83,6.68,6.68,0,0,0-1.53,1.27,7.21,7.21,0,0,0-1.1,1.67,8.31,8.31,0,0,0-.67,2,10.52,10.52,0,0,0-.23,2.2,10.06,10.06,0,0,0,.48,3.16,7.37,7.37,0,0,0,1.45,2.55,6.7,6.7,0,0,0,2.41,1.7,8.45,8.45,0,0,0,3.35.61,4.75,4.75,0,0,0,1.28-.17,5.79,5.79,0,0,0,1.27-.48,6.87,6.87,0,0,0,1.16-.74,5.3,5.3,0,0,0,.82-.82l.33,1.93h2.11v-8.63h-7.46Zm77.6,6.11h3V128.09h-3Zm6.54,0h3V136.9h6.86l0-2.53H310v-3.75h8v-2.53h-11Zm16.21-2.49V136.9h7.61v-2.53h-7.6v-3.75h8.58v-2.53H320.3v15.62h11.62v-2.49Zm-76.25-13,.18-.17h-3.94l-6.91,6.76v-6.76h-3v15.62h3v-5.33l2-1.89,5.37,7.18,0,0h3.61l-6.93-9.22Zm15.61,3.63a8,8,0,0,0-1.09-1.67,6.76,6.76,0,0,0-1.54-1.31,7.9,7.9,0,0,0-2-.86,9.27,9.27,0,0,0-2.42-.3,9.14,9.14,0,0,0-2.41.3,7.83,7.83,0,0,0-2,.86,6.64,6.64,0,0,0-1.53,1.31,8.27,8.27,0,0,0-1.09,1.67,8.79,8.79,0,0,0-.66,1.93,10.37,10.37,0,0,0-.22,2.09,10.17,10.17,0,0,0,.22,2.07,8.88,8.88,0,0,0,.66,1.92,7.15,7.15,0,0,0,1.09,1.65,6.63,6.63,0,0,0,1.53,1.3,7.9,7.9,0,0,0,2,.84,9.87,9.87,0,0,0,4.83,0,7.75,7.75,0,0,0,2-.84,6.74,6.74,0,0,0,1.55-1.3,7.86,7.86,0,0,0,1.09-1.65,8.2,8.2,0,0,0,.65-1.92,10.17,10.17,0,0,0,.21-2.07,10.36,10.36,0,0,0-.21-2.09A8.27,8.27,0,0,0,262.63,131.89Zm-2.23,5.41a7.37,7.37,0,0,1-.37,1.32,5,5,0,0,1-.65,1.15,4.15,4.15,0,0,1-.94.93,4.41,4.41,0,0,1-1.25.61,5.29,5.29,0,0,1-1.6.22,5.2,5.2,0,0,1-1.58-.22,4.48,4.48,0,0,1-1.24-.61,4.32,4.32,0,0,1-.93-.93,5,5,0,0,1-.65-1.15,6.65,6.65,0,0,1-.38-1.32,8.17,8.17,0,0,1,0-2.79,6.56,6.56,0,0,1,.38-1.33,5.73,5.73,0,0,1,.64-1.17,4.36,4.36,0,0,1,.94-.93,4.48,4.48,0,0,1,1.24-.61,5.58,5.58,0,0,1,3.17,0,4.34,4.34,0,0,1,1.26.61,4.61,4.61,0,0,1,.94.93,6,6,0,0,1,.65,1.17,7.25,7.25,0,0,1,.37,1.33,8.17,8.17,0,0,1,0,2.79Zm19.4-9.21h-3.93L269,134.85v-6.76h-3v15.62h3l0-5.33,2-1.89,5.36,7.18,0,0h3.6L273,134.49Zm10.86,13.13V128.09h-3v15.62h10.5l0-2.49Z" style="fill:#0b5ba7"/><path d="M156.3,24.21a13.16,13.16,0,0,0-3.35.33,10,10,0,0,0-2.5.95,7,7,0,0,0-1.68,1.28,4.28,4.28,0,0,0-.88,1.36,6.56,6.56,0,0,1,1.8,2.81,12,12,0,0,1,.59,3.89v21h-9.67V34.74a6.93,6.93,0,0,0-.14-1.34A5,5,0,0,0,140,32a5.82,5.82,0,0,0-1-1.33,7.6,7.6,0,0,0-1.65-1.22,18.77,18.77,0,0,1,1.13-3.31A17,17,0,0,1,140.25,23a17.18,17.18,0,0,1,2.66-2.82,16,16,0,0,1,3.5-2.28,20,20,0,0,1,4.44-1.53,24.81,24.81,0,0,1,5.45-.56,27.61,27.61,0,0,1,6.29.64,19.11,19.11,0,0,1,4.81,1.77,13.34,13.34,0,0,1,3.5,2.71,14.51,14.51,0,0,1,2.3,3.43,16.2,16.2,0,0,1,1.27,3.9,21.54,21.54,0,0,1,.4,4.18V55.87H165V31.77a8.64,8.64,0,0,0-.43-2.69,6.22,6.22,0,0,0-1.45-2.42,7.33,7.33,0,0,0-2.68-1.74,11.76,11.76,0,0,0-4.15-.71" style="fill:#0058a7"/><path d="M189.66,42.61a9,9,0,0,0,.7,2.83,6.62,6.62,0,0,0,1.46,2.12,6.22,6.22,0,0,0,2.08,1.33,7,7,0,0,0,2.58.47,11,11,0,0,0,2.11-.21,6,6,0,0,0,2-.75,4.39,4.39,0,0,0,1.48-1.46,4.25,4.25,0,0,0,.59-2.32,3.29,3.29,0,0,0-.61-2,5,5,0,0,0-1.85-1.44,18,18,0,0,0-3.1-1.14c-1.25-.35-2.72-.73-4.42-1.13a32.15,32.15,0,0,1-4-1.25,13.64,13.64,0,0,1-3.51-2,9.24,9.24,0,0,1-2.48-3,9.13,9.13,0,0,1-.95-4.34A15.17,15.17,0,0,1,182.3,24a10.85,10.85,0,0,1,1.61-3.27,10,10,0,0,1,2.43-2.3,13.59,13.59,0,0,1,3-1.48,17.32,17.32,0,0,1,3.43-.79,27.63,27.63,0,0,1,3.65-.24,22,22,0,0,1,5.34.64,12.29,12.29,0,0,1,4.49,2.14,11.39,11.39,0,0,1,3.21,3.91,15.56,15.56,0,0,1,1.51,6h-8.93a5.53,5.53,0,0,0-1.76-3.95,6,6,0,0,0-4-1.33,8.73,8.73,0,0,0-1.71.18,5.39,5.39,0,0,0-1.62.58,3.58,3.58,0,0,0-1.22,1.1,2.86,2.86,0,0,0-.49,1.71,3,3,0,0,0,.87,2.27,6.61,6.61,0,0,0,2.32,1.32,25,25,0,0,0,3.33.86c1.26.25,2.55.54,3.89.88a32.35,32.35,0,0,1,4,1.34,11.91,11.91,0,0,1,3.33,2,9.08,9.08,0,0,1,2.3,3.11,10.74,10.74,0,0,1,.86,4.53,15.57,15.57,0,0,1-.62,4.56,11.65,11.65,0,0,1-1.71,3.5,11,11,0,0,1-2.58,2.55A14.09,14.09,0,0,1,204,55.5a19.2,19.2,0,0,1-3.69,1,27,27,0,0,1-3.93.29,19.35,19.35,0,0,1-5.73-.86,14.59,14.59,0,0,1-4.94-2.59,13.26,13.26,0,0,1-3.53-4.4,15,15,0,0,1-1.49-6.28Z" style="fill:#0058a7"/><polygon points="198.53 72.97 198.53 66.17 194.62 66.17 194.62 59.94 205.77 59.94 205.77 72.97 198.53 72.97" style="fill:#0058a7"/><path d="M231.57,47.56a2.18,2.18,0,0,0,.53.81,1.09,1.09,0,0,0,.73.24.89.89,0,0,0,.69-.3,1,1,0,0,0,.27-.66v-23h-5.28V16.66h15V46.51a11.79,11.79,0,0,1-.84,4.68,8.63,8.63,0,0,1-2.3,3.2A9.21,9.21,0,0,1,237,56.23a14.48,14.48,0,0,1-4.24.6,13.63,13.63,0,0,1-4-.53,8.91,8.91,0,0,1-2.95-1.55,9.29,9.29,0,0,1-2.13-2.44,18.25,18.25,0,0,1-1.53-3.23l-6.42-17.59h10.16Z" style="fill:#0058a7"/><rect x="253.02" y="16.66" width="9.86" height="39.21" style="fill:#0058a7"/><polygon points="340.73 16.66 347.13 38.66 351.92 16.66 362.45 16.66 352.01 55.88 343.7 55.88 337.09 33.5 330.6 55.88 322.26 55.88 311.85 16.66 322.38 16.66 327.14 38.85 333.56 16.66 340.73 16.66" style="fill:#0058a7"/><path d="M306.9,25.92l-.12-.6-.16-.65a11.41,11.41,0,0,0-1.72-3.81,10.24,10.24,0,0,0-9.07-4.95,9,9,0,0,0-1.37,0l-.58,0a5.59,5.59,0,0,0-.59.08c-6.1.95-10.4,6.9-11.53,8.62l0-3h0V16.73h-9.37V55.87h9.74V44.68c0-7.49,3.22-15.14,8.42-18.23a5.14,5.14,0,0,1,2.84-.64,4.19,4.19,0,0,1,3.34,1.67,6.51,6.51,0,0,1,.39.74,5.12,5.12,0,0,1,.32,1.05v.08a8.08,8.08,0,0,1,.09,1.12V55.92h9.66V31.07a30.44,30.44,0,0,0-.28-5.15" style="fill:#0058a7"/><path d="M38.09,74.83l11.39,39.45a3.33,3.33,0,0,0,6.4,0L67.27,74.83a3.33,3.33,0,0,0-3.2-4.25H41.29A3.33,3.33,0,0,0,38.09,74.83Z" style="fill:#00aeef"/><circle cx="52.68" cy="55.83" r="8.64" style="fill:#00aeef"/><path d="M52.68,23c6.85,9,27.81,37.38,29.86,40.42.5.75,1,1.47,1.62,2.24l0,.06A34.13,34.13,0,0,1,90,76.2c2.24,6.65,1.6,14.74,1.59,14.83a20.88,20.88,0,0,1-3,9.11c12.78-17.31,8.11-36.72,4.65-45.94C88.18,47,55.22,2.77,52.68,0V23.05Z" style="fill:#0058a9"/><path d="M88.62,100.14l-.44.67a23.65,23.65,0,0,1-3.6,4.06l-.06.06.07-.06s18.2-12.76,20-27.48a35.29,35.29,0,0,0-1.24-5.28,45.54,45.54,0,0,0-3-7.15c-2.3-4.42-4.78-7.28-6.62-10l-.5-.72C96.73,63.42,101.4,82.83,88.62,100.14Z" style="fill:#bfd730"/><path d="M10.46,92.25s5.74,8.62,10.06,12.39a24.11,24.11,0,0,1-3.34-3.83A20.45,20.45,0,0,1,13.77,91c0-.09-.65-8.18,1.59-14.83a34.13,34.13,0,0,1,5.79-10.44l.05-.06c.58-.77,1.12-1.49,1.62-2.24,2.05-3,23-31.44,29.86-40.42h0V0C50.06,2.86,14.27,50.89,11.59,54.92c-1.75,2.63-4.08,5.35-6.29,9.42C4.1,67.43,1.31,77.78,10.46,92.25Z" style="fill:#00aeef"/><path d="M105.35,86.35a64.05,64.05,0,0,0-.49-7.22c0-.21-.06-.41-.09-.61,0-.38-.11-.75-.17-1.13-1.81,14.72-20,27.48-20,27.48l-.07.06c-.38.35-.79.7-1.22,1.06l-.5.42c-1.43,1.15-3.55,2.74-6,4.55s-5.43,3.92-8.35,6l-7,5h0c-3.59,2.51-6.88,4.79-8.71,6h0l0,0s-9.05,5.65-19.53,2.42c9.78,7,19.42,13.48,19.58,13.59.17-.11,10.27-6.95,20.29-14.09h0l.87-.62c7-5,13.78-10.06,17.26-13.19C98.34,109.58,103,104,104.55,97.18a23.83,23.83,0,0,0,.6-4.3S105.4,90.16,105.35,86.35Z" style="fill:#00aeef"/><path d="M52.63,128l0,0c-1.83-1.27-5.11-3.54-8.7-6h0l-7-5c-2.92-2.07-5.82-4.15-8.35-6l-1.2-.89-5.06-3.53S4.54,96.33,0,86.27v.08a65.22,65.22,0,0,0,.2,6.53,23.83,23.83,0,0,0,.6,4.3C2.41,104,7,109.58,14.27,116.1c3.48,3.13,10.31,8.21,17.26,13.19l.86.62h0l.71.5C43.58,133.64,52.63,128,52.63,128Z" style="fill:#0058a9"/><path d="M22.32,106.54l5.06,3.53c-2-1.44-3.63-2.71-4.82-3.66l-.5-.42c-.45-.38-.88-.75-1.29-1.12l-.25-.23c-4.32-3.77-10.06-12.39-10.06-12.39C1.31,77.78,4.1,67.43,5.3,64.34L5,65a45.54,45.54,0,0,0-3,7.15A38.92,38.92,0,0,0,.58,78.52c0,.2-.06.4-.09.61A64.79,64.79,0,0,0,0,86.27C4.54,96.33,22.32,106.54,22.32,106.54Z" style="fill:#bfd730"/></svg>