<?xml version="1.0" standalone="no"?>
<!DOCTYPE svg PUBLIC "-//W3C//DTD SVG 20010904//EN"
 "http://www.w3.org/TR/2001/REC-SVG-20010904/DTD/svg10.dtd">
<svg version="1.0" xmlns="http://www.w3.org/2000/svg"
 width="700.000000pt" height="700.000000pt" viewBox="0 0 700.000000 700.000000"
 preserveAspectRatio="xMidYMid meet">
<metadata>
Created by potrace 1.14, written by Peter Selinger 2001-2017
</metadata>
<g transform="translate(0.000000,700.000000) scale(0.100000,-0.100000)"
fill="#000000" stroke="none">
<path d="M3438 6923 c-118 -147 -818 -1076 -1264 -1678 -203 -275 -396 -535
-480 -650 -40 -55 -77 -104 -82 -110 -4 -5 -27 -37 -50 -70 -23 -33 -85 -121
-138 -195 -53 -74 -116 -166 -141 -205 -99 -151 -208 -389 -257 -561 -29 -100
-30 -102 -51 -224 -13 -77 -17 -113 -30 -275 -10 -119 -5 -394 9 -535 38 -373
249 -691 745 -1123 102 -89 708 -544 834 -626 12 -8 40 -26 62 -40 22 -14 74
-51 116 -81 43 -30 85 -61 95 -68 11 -7 62 -42 114 -79 95 -66 328 -227 490
-338 47 -32 90 -58 96 -58 11 0 390 256 639 433 750 531 983 705 1200 890 60
51 333 327 376 380 205 251 305 474 327 734 9 108 9 509 -1 617 -22 254 -99
526 -213 751 -43 84 -142 246 -205 333 -32 44 -75 104 -96 133 -21 29 -44 59
-50 67 -7 7 -13 16 -13 19 0 8 -262 366 -630 861 -90 121 -195 263 -234 315
-151 204 -737 985 -874 1165 -172 224 -221 285 -232 285 -4 0 -32 -30 -62 -67z
m360 -1438 c4 -5 61 -82 127 -170 65 -88 180 -243 256 -345 75 -102 198 -268
272 -370 75 -102 140 -189 144 -195 5 -5 87 -118 183 -250 95 -132 200 -276
233 -320 278 -378 373 -642 381 -1060 5 -246 -25 -412 -97 -548 -14 -26 -22
-45 -17 -42 14 9 -57 -95 -101 -147 -23 -27 -37 -53 -33 -60 4 -6 3 -9 -2 -5
-5 3 -41 -24 -79 -60 -125 -116 -755 -578 -1349 -989 -190 -131 -221 -149
-235 -138 -9 8 -104 74 -211 148 -200 138 -687 484 -865 614 -55 40 -111 81
-123 90 -35 25 -95 70 -109 82 -7 5 -16 10 -20 10 -5 0 -14 9 -21 20 -7 11
-17 20 -23 20 -5 0 -21 11 -35 25 -14 14 -30 23 -35 19 -5 -3 -8 -1 -7 3 2 5
-29 37 -68 70 -64 56 -126 123 -147 159 -5 8 -14 11 -20 8 -7 -4 -9 -4 -5 1 5
5 -3 23 -17 41 -14 18 -29 43 -35 56 -5 13 -14 30 -20 38 -21 33 -72 165 -86
225 -18 79 -27 175 -28 300 0 449 96 738 365 1097 35 47 91 123 125 169 240
335 1249 1702 1316 1784 4 5 27 34 49 63 l41 52 144 -192 c79 -106 147 -197
152 -203z"/>
<path d="M3398 4691 c-349 -88 -430 -547 -131 -752 138 -96 332 -95 473 2 118
81 182 215 176 366 -11 263 -261 449 -518 384z"/>
<path d="M2896 3560 c-59 -18 -105 -81 -111 -155 -1 -16 26 -116 145 -525 62
-212 114 -394 117 -405 3 -11 18 -65 34 -120 44 -151 52 -177 139 -480 44
-154 89 -311 101 -350 30 -106 55 -149 100 -174 51 -29 107 -29 157 -1 49 28
73 70 105 185 14 50 64 225 112 390 297 1023 413 1432 419 1466 6 40 -10 87
-43 122 -53 58 -29 56 -662 56 -321 0 -597 -5 -613 -9z"/>
</g>
</svg>
